<svg width="173" height="38" viewBox="0 0 173 38" fill="none" xmlns="http://www.w3.org/2000/svg">
<path d="M0.06 27H7.152V-2.14577e-06H0.06V27Z" fill="url(#paint0_linear_2464_290)"/>
<path d="M12.7388 27H18.4988V18C18.4988 16.56 19.6148 15.444 21.2348 15.444C22.4588 15.444 23.5388 16.452 23.5388 18V27H28.9388V18C28.9388 13.392 25.2308 10.044 21.1268 10.044C20.1548 10.044 19.2548 10.26 18.4988 10.548V10.44H12.7388V27ZM38.6976 27.36C41.7936 27.36 45.1056 25.308 45.1056 22.176C45.1056 18.036 40.8576 16.74 38.8056 16.74C37.7616 16.74 36.9696 16.2 36.9696 15.408C36.9696 14.58 37.7616 14.112 38.6256 14.112C39.8136 14.112 40.3896 14.796 40.3896 15.408H45.1056C45.1056 12.348 41.8656 10.08 38.6256 10.08C35.4216 10.08 32.2176 12.06 32.2176 15.48C32.2176 18.72 35.4936 20.736 38.6256 20.736C39.7416 20.736 40.3896 21.24 40.3896 22.068C40.3896 22.86 39.7776 23.4 38.7336 23.4C37.6176 23.4 36.9336 22.824 36.9336 22.068H32.1816C32.1816 24.732 34.7016 27.36 38.6976 27.36ZM58.3164 10.44H55.4724V5.472H49.7124V10.44H46.8684V14.796H49.7124V27H55.4724V14.796H58.3164V10.44ZM74.0543 10.44V11.232C72.7583 10.476 71.3183 10.08 69.7343 10.08C64.9103 10.08 61.0223 13.932 61.0223 18.72C61.0223 23.544 64.9103 27.36 69.7343 27.36C71.3183 27.36 72.7583 26.964 74.0543 26.208V27H79.9223V10.44H74.0543ZM69.7343 22.032C68.0063 22.032 66.5303 20.592 66.5303 18.792C66.5303 17.028 68.0063 15.588 69.7343 15.588C71.4983 15.588 72.8303 17.028 72.8303 18.792C72.8303 20.592 71.4983 22.032 69.7343 22.032ZM94.1381 27H101.23V19.836H105.658C111.022 19.836 115.45 15.372 115.45 9.936C115.45 4.464 110.986 -2.14577e-06 105.514 -2.14577e-06H94.1381V27ZM101.23 13.716V5.976H105.622C107.782 5.976 109.51 7.704 109.51 9.864C109.51 12.024 107.782 13.716 105.622 13.716H101.23ZM119.051 27H124.811V-2.14577e-06H119.051V27ZM167.032 10.44V19.332C167.032 20.736 165.88 21.852 164.26 21.852C163.036 21.852 161.92 20.844 161.92 19.332V10.44H156.484V19.332C156.484 23.976 160.228 27.36 164.332 27.36C165.34 27.36 166.24 27.144 167.032 26.892V28.512C167.032 30.708 165.772 32.076 163.504 32.076H159.472V37.872H163.396C169.048 37.872 172.792 33.696 172.792 28.512V10.44H167.032Z" fill="white"/>
<defs>
<linearGradient id="paint0_linear_2464_290" x1="86.5" y1="-7" x2="86.5" y2="37" gradientUnits="userSpaceOnUse">
<stop stop-color="#FF5E62"/>
<stop offset="1" stop-color="#FF9966"/>
</linearGradient>
</defs>
</svg>
